<?xml version="1.0" standalone="no"?>
<!DOCTYPE svg PUBLIC "-//W3C//DTD SVG 20010904//EN"
 "http://www.w3.org/TR/2001/REC-SVG-20010904/DTD/svg10.dtd">
<svg version="1.0" xmlns="http://www.w3.org/2000/svg"
 width="635.000000pt" height="350.000000pt" viewBox="0 0 635.000000 350.000000"
 preserveAspectRatio="xMidYMid meet">

<g transform="translate(0.000000,350.000000) scale(0.100000,-0.100000)"
fill="#000000" stroke="none">
<path d="M2837 2649 c-332 -35 -578 -224 -677 -519 -47 -142 -50 -191 -50
-767 l0 -543 248 0 247 0 -2 200 -3 200 355 0 355 0 6 -23 c3 -13 4 -103 2
-200 l-3 -177 253 0 252 0 0 513 c0 292 -4 549 -10 597 -52 421 -310 676 -730
720 -107 11 -132 11 -243 -1z m234 -423 c70 -21 102 -40 142 -85 76 -84 97
-160 102 -373 l5 -158 -359 0 -359 0 3 160 c4 160 16 235 52 303 21 42 82 106
117 124 80 42 212 54 297 29z"/>
<path d="M4950 2650 c-219 -20 -426 -109 -583 -250 -65 -59 -153 -173 -190
-246 -32 -63 -71 -190 -87 -280 -18 -99 -8 -297 19 -399 96 -361 397 -617 792
-675 128 -19 330 -8 450 23 176 46 318 126 430 240 l60 62 -29 25 c-16 14 -89
78 -161 144 l-131 118 -54 -50 c-116 -110 -221 -153 -371 -153 -158 1 -268 43
-366 142 -93 94 -138 213 -138 369 -1 163 40 271 142 374 79 80 161 120 279
137 184 27 348 -30 468 -162 l35 -39 158 141 c86 77 157 145 157 150 0 16 -80
98 -144 146 -75 57 -216 125 -316 152 -67 19 -261 43 -315 40 -11 -1 -58 -5
-105 -9z"/>
<path d="M1215 2489 c-104 -60 -191 -112 -192 -116 -1 -5 88 -59 197 -121
l200 -113 0 -705 c0 -387 2 -704 4 -704 8 0 362 203 375 216 21 19 31 1404 10
1421 -13 11 -399 234 -403 232 0 0 -86 -49 -191 -110z"/>
<path d="M580 2093 c-52 -31 -138 -81 -191 -112 l-97 -56 249 -143 248 -143 0
-281 c0 -154 2 -282 4 -284 2 -3 93 46 201 108 l196 113 -3 289 -2 288 -240
139 c-132 76 -247 138 -255 138 -8 0 -58 -26 -110 -56z"/>
</g>
</svg>
