<?xml version="1.0" standalone="no"?>
<!DOCTYPE svg PUBLIC "-//W3C//DTD SVG 20010904//EN"
 "http://www.w3.org/TR/2001/REC-SVG-20010904/DTD/svg10.dtd">
<svg version="1.0" xmlns="http://www.w3.org/2000/svg"
 width="419.000000pt" height="380.000000pt" viewBox="0 0 419.000000 380.000000"
 preserveAspectRatio="xMidYMid meet">

<g transform="translate(0.000000,380.000000) scale(0.100000,-0.100000)"
fill="#000000" stroke="none">
<path d="M1750 3355 c-580 -119 -1040 -549 -1195 -1117 -175 -646 82 -1331
640 -1700 267 -177 536 -258 860 -258 266 0 486 52 713 170 679 351 997 1126
766 1863 -132 418 -468 782 -882 953 -206 86 -359 114 -605 113 -150 0 -202
-5 -297 -24z m515 -46 c549 -70 1031 -470 1210 -1002 65 -194 92 -466 66 -661
-56 -420 -290 -809 -624 -1037 -49 -34 -56 -43 -47 -59 15 -29 14 -30 -40 -30
-36 0 -67 -8 -108 -29 -92 -46 -239 -97 -352 -123 -91 -20 -132 -23 -310 -23
-163 0 -224 4 -295 19 -110 23 -266 76 -359 122 -53 26 -83 34 -123 34 -52 0
-53 0 -41 25 6 14 9 26 7 28 -2 2 -34 24 -71 50 -299 210 -526 575 -594 952
-24 133 -24 375 -1 505 104 575 517 1034 1071 1189 197 55 391 68 611 40z"/>
<path d="M1908 3000 c-78 -14 -178 -50 -258 -92 -395 -210 -557 -690 -375
-1113 46 -108 163 -251 273 -335 l32 -25 -165 -290 c-92 -159 -177 -309 -191
-332 l-25 -43 85 0 84 0 343 600 c287 502 345 598 355 585 7 -9 162 -279 346
-601 l333 -584 83 0 84 0 -35 63 c-20 34 -105 183 -190 332 l-154 270 31 23
c54 39 166 155 200 207 32 48 86 149 86 160 0 3 -44 5 -98 5 l-99 0 -32 -50
c-38 -58 -160 -182 -175 -177 -6 2 -96 153 -200 335 l-190 331 -190 -334
c-105 -184 -195 -335 -201 -335 -5 0 -47 38 -91 84 -142 146 -201 301 -191
506 9 180 64 304 192 435 127 129 268 192 450 202 127 6 222 -13 331 -67 93
-45 200 -138 259 -224 l38 -56 99 0 c54 0 98 2 98 5 0 28 -98 178 -164 252
-95 106 -265 208 -411 248 -70 19 -296 28 -367 15z"/>
<path d="M1965 1493 c-72 -38 -107 -97 -107 -183 0 -66 17 -105 66 -147 100
-88 257 -58 312 60 50 108 15 215 -88 268 -46 24 -140 25 -183 2z"/>
</g>
</svg>
